<svg width="21" height="21" viewBox="0 0 21 21" fill="none" xmlns="http://www.w3.org/2000/svg">
<path d="M19.4519 0.82139H1.04718C0.815338 0.82139 0.619164 0.901643 0.458657 1.06215C0.298151 1.22265 0.217898 1.41883 0.217898 1.65067V20.0554C0.217898 20.2872 0.298151 20.4834 0.458657 20.6439C0.619164 20.8044 0.815338 20.8846 1.04718 20.8846H10.8648V13.3676H8.37695V10.2377H10.8648V7.72315C10.8648 6.45693 11.2393 5.48498 11.9883 4.80729C12.6839 4.16527 13.6291 3.84425 14.8239 3.84425C15.787 3.84425 16.5717 3.88884 17.178 3.97801V6.67986H15.573C14.9845 6.67986 14.5654 6.81361 14.3157 7.08112C14.1195 7.31297 14.0214 7.66965 14.0214 8.15116V10.2377H17.1513L16.5093 13.3676H14.0214L14.0749 20.8846H19.4519C19.6837 20.8846 19.8799 20.8044 20.0404 20.6439C20.2009 20.4834 20.2811 20.2872 20.2811 20.0554V1.65067C20.2811 1.41883 20.2009 1.22265 20.0404 1.06215C19.8799 0.901643 19.6837 0.82139 19.4519 0.82139Z" fill="#4267B2"/>
</svg>
