<svg width="22" height="21" viewBox="0 0 22 21" fill="none" xmlns="http://www.w3.org/2000/svg">
<path fill-rule="evenodd" clip-rule="evenodd" d="M19.7152 10.763C19.7152 10.0665 19.6514 9.39682 19.5328 8.75391H10.0845V12.5533H15.4835C15.251 13.7811 14.5442 14.8214 13.4817 15.5179V17.9824H16.7238C18.6208 16.2724 19.7152 13.7543 19.7152 10.763Z" fill="#4285F4"/>
<path fill-rule="evenodd" clip-rule="evenodd" d="M10.0846 20.3623C12.7932 20.3623 15.0641 19.4827 16.7239 17.9826L13.4818 15.5181C12.5835 16.1075 11.4343 16.4557 10.0846 16.4557C7.47171 16.4557 5.26011 14.7279 4.47123 12.4062H1.11963V14.9511C2.77035 18.1612 6.16299 20.3623 10.0846 20.3623Z" fill="#34A853"/>
<path fill-rule="evenodd" clip-rule="evenodd" d="M4.47137 12.4082C4.27073 11.8188 4.15673 11.1893 4.15673 10.5419C4.15673 9.89457 4.27073 9.26505 4.47137 8.67572V6.13086H1.11977C0.440334 7.45687 0.0527344 8.95699 0.0527344 10.5419C0.0527344 12.1269 0.440334 13.627 1.11977 14.953L4.47137 12.4082Z" fill="#FBBC05"/>
<path fill-rule="evenodd" clip-rule="evenodd" d="M10.0846 4.62533C11.5575 4.62533 12.8799 5.12091 13.9195 6.09421L16.7969 3.277C15.0595 1.69205 12.7887 0.71875 10.0846 0.71875C6.16299 0.71875 2.77035 2.91983 1.11963 6.12993L4.47123 8.67479C5.26011 6.35316 7.47171 4.62533 10.0846 4.62533Z" fill="#EA4335"/>
</svg>
