<svg xmlns="http://www.w3.org/2000/svg" width="88" height="88" fill="none" viewBox="0 0 88 88"><path fill="#067F8A" fill-rule="evenodd" d="M44 6c-5.838 0-11.208 1.157-16.106 3.47-3.926 1.845-7.516 4.393-10.77 7.646C9.706 24.56 6 33.513 6 43.975 6 54.303 9.574 63.12 16.72 70.43a2.266 2.266 0 0 0 0.403 0.403C24.54 78.278 33.497 82 44 82c4.195 0 8.154-0.604 11.878-1.81 5.537-1.778 10.537-4.897 14.999-9.356C78.292 63.457 82 54.504 82 43.974c0-10.461-3.708-19.414-11.123-26.858a75.695 75.695 0 0 0-2.97-2.716C61.096 8.8 53.126 6 44 6z" clip-rule="evenodd"/><path fill="#000" fill-opacity=".2" fill-rule="evenodd" d="M43.71 24.12c-6.875 0.637-12.51 3.606-16.904 8.906-4.428 5.299-6.323 11.387-5.686 18.264 0.638 6.876 3.606 12.51 8.906 16.905 5.3 4.427 11.37 6.323 18.213 5.684 6.876-0.636 12.528-3.605 16.955-8.904 4.428-5.3 6.323-11.37 5.686-18.213-0.637-6.877-3.606-12.529-8.906-16.957-5.3-4.427-11.387-6.322-18.263-5.684z" clip-rule="evenodd"/><path fill="#CCC" fill-rule="evenodd" d="M41.71 19.12c-6.875 0.638-12.511 3.606-16.904 8.907-4.428 5.299-6.323 11.386-5.686 18.262 0.637 6.876 3.606 12.512 8.906 16.905 5.3 4.428 11.37 6.323 18.213 5.686 6.876-0.637 12.528-3.606 16.955-8.905 4.428-5.3 6.323-11.371 5.686-18.214-0.638-6.876-3.606-12.528-8.906-16.955-5.3-4.428-11.387-6.323-18.263-5.686z" clip-rule="evenodd"/><path fill="#fff" fill-rule="evenodd" d="M28.075 44.938c0.399 4.247 2.24 7.747 5.523 10.502 3.284 2.72 7.066 3.882 11.345 3.484 4.245-0.366 7.744-2.19 10.498-5.475 2.72-3.285 3.88-7.068 3.483-11.35-0.365-4.246-2.19-7.747-5.473-10.5-3.317-2.722-7.1-3.9-11.345-3.534-4.246 0.398-7.745 2.24-10.498 5.525-2.753 3.284-3.93 7.067-3.533 11.348z" clip-rule="evenodd"/><path fill="#CCC" fill-rule="evenodd" d="M6.879 22.928c0.034-0.232-0.084-1.975-0.354-5.23L4 18.046l0.758 12.206v0.398a0.537 0.537 0 0 1 0.05 0.25c0.472 2.856 2.121 4.5 4.95 4.931L12.08 72l6.161-0.897-4.141-35.47c3.166-1.063 4.78-3.007 4.848-5.83A1.102 1.102 0 0 1 19 29.455a0.554 0.554 0 0 1-0.05-0.25c0-0.032-0.017-0.05-0.051-0.05L16.727 17l-2.171 0.299c0.27 2.857 0.639 7.074 1.11 12.654l-2.474 0.05c-0.707-5.348-1.28-9.615-1.717-12.804l-2.222 0.15 1.01 12.803H7.889c-0.505-3.022-0.842-5.43-1.01-7.224z" clip-rule="evenodd"/><path fill="#fff" fill-rule="evenodd" d="M55.617 25.667L59.567 31l0.1-6.617 5.333-4-6.667-0.05-3.9-5.333-0.149 6.617-5.284 4 6.617 0.05zM17 61.617l5.4 0.05L25.6 66l0.05-5.391L30 57.384l-5.4-0.05L21.4 53l-0.05 5.392L17 61.617zM70 42.5l9-9.5 1-8-10.193 10.67a9.989 9.989 0 0 0-0.145 1.032c-0.193 2.096-0.08 4.03 0.338 5.798z" clip-rule="evenodd"/><path fill="#CCC" fill-rule="evenodd" d="M81 17c-6.252 4.065-9.918 10.565-11 18.5l10.24-10.68L81 17zM70 42.538a12.289 12.289 0 0 0 2.822 5.392l-2.627 23.52L75.74 72 79 33l-9 9.538z" clip-rule="evenodd"/></svg>